<?xml version="1.0" encoding="utf-8"?>
<!-- Generator: Adobe Illustrator 23.0.1, SVG Export Plug-In . SVG Version: 6.00 Build 0)  -->
<svg version="1.1" id="Calque_1" xmlns="http://www.w3.org/2000/svg" xmlns:xlink="http://www.w3.org/1999/xlink" x="0px" y="0px"
	 viewBox="0 0 491.34 145.14" style="enable-background:new 0 0 491.34 145.14;" xml:space="preserve">
<style type="text/css">
	.st0{fill:none;}
	.st1{fill:#FED8B7;}
	.st2{fill:#FFFFFF;}
	.st3{font-family:'Univers-Light-Normal';}
	.st4{font-size:50px;}
</style>
<g>
	<g>
		<path class="st0" d="M145.14,145.14c-48.38,0-96.76,0-145.14,0C0,96.76,0,48.38,0,0c48.38,0,96.76,0,145.14,0
			C145.14,48.38,145.14,96.76,145.14,145.14z M54.89,44.84c2.54-5.32,2.04-10.37-1.81-14.9c-4.05-4.76-9.24-7.78-15.36-9
			c-5.35-1.06-9.97,0.34-13.34,4.84c-0.7,0.93-1.29,0.87-2.27,0.61c-4.18-1.13-8.09,2.12-7.67,6.4c0.31,3.17,1.95,5.55,4.84,6.96
			c2.11,1.03,2.22,1.5,0.38,2.96c-4.58,3.65-7.74,8.27-9.21,13.92c-4.62,17.69-2.04,34.34,7.85,49.69
			c25.11,38.99,77.55,38.53,102.63,8.34c2.86-3.45,5.77-6.98,7.96-10.86c13.68-24.22,11.29-55.57-11.48-78.4
			C106.97,14.93,93.94,9.36,79.23,7.84c-6.04-0.63-12.09-0.37-18.06,0.78c-2.58,0.49-4.04,2.66-3.6,5.08
			c0.42,2.31,2.49,3.72,5.02,3.42c0.64-0.08,1.27-0.18,1.91-0.28c24.96-3.92,46.55,10.09,55.23,25.02
			c6.78,11.67,10.01,23.87,8.4,37.28c-1.19,9.9-4.67,19-10.86,26.78c-13.37,16.82-30.99,23.8-52.28,21.4
			c-6.86-0.77-13.42-2.77-18.76-7.38c-1.78-1.54-3.13-3.69-4.31-5.77c-0.8-1.41-0.25-2.92,1.39-3.69c1.72-0.81,2.79-0.46,3.89,1.25
			c0.45,0.7,0.84,1.45,1.34,2.12c1.57,2.12,3.36,2.42,5.48,0.91c0.89-0.63,1.73-1.34,2.52-2.1c2.86-2.76,5.88-5.4,8.47-8.4
			c2.03-2.35,3.64-5.1,5.18-7.81c0.75-1.32,0.66-3.03-0.82-3.98c-1.5-0.97-2.47,0.38-3.47,1.24c-0.44,0.38-0.8,0.84-1.2,1.25
			c-1.79,1.84-3.39,3.95-5.44,5.43c-1.63,1.18-3.75,2.01-5.75,2.27c-2.83,0.36-4.32-1.43-3.89-4.32c0.3-2.02,0.87-4.02,1.55-5.96
			c1.42-4.06,3.03-8.06,4.49-12.11c0.37-1.04,0.47-2.17,0.64-3c-1.93-0.37-3.59-0.55-5.15-1.02c-1.59-0.47-3.07-1.35-4.67-1.81
			c-0.81-0.24-2.02-0.31-2.63,0.13c-3.13,2.24-6.11,4.67-9.15,7.03c-0.36,0.28-0.71,0.59-1.51,1.26c0.41-3.48,0.74-6.41,1.12-9.33
			c0.18-1.39,1.07-3.08,0.56-4.08c-0.56-1.08-2.38-1.51-3.66-2.23c-0.22-0.13-0.56-0.2-0.64-0.39c-0.14-0.31-0.12-0.69-0.22-1.33
			c0.92,0.41,1.49,0.67,2.07,0.93c5.91,2.69,11.83,5.36,17.72,8.08c2.52,1.17,5.02,1.3,7.67,0.48c2.95-0.91,5.97-1.58,8.91-2.5
			c1.96-0.61,3.34-0.01,4.55,1.51c1.04,1.3,2.12,2.6,3.31,3.76c1.56,1.51,3.32,1.61,4.91,0.49c1.42-1,1.82-2.74,0.75-4.67
			c-2.39-4.32-5.8-7.61-10.93-7.89c-3.61-0.19-7.26,0.61-10.9,0.8c-1.62,0.08-3.57,0.24-4.83-0.53c-4.5-2.73-8.77-5.81-13.08-8.84
			c-0.29-0.2-0.38-1.21-0.14-1.55c0.71-1.02,4.3-1.29,5.38-0.55c2.4,1.64,5.03,1.99,7.73,1.06C58.51,54.36,59.16,49.11,54.89,44.84z
			"/>
		<path class="st1" d="M54.89,44.84c4.27,4.27,3.61,9.52-1.41,11.25c-2.7,0.93-5.34,0.58-7.73-1.06c-1.07-0.73-4.67-0.47-5.38,0.55
			c-0.24,0.34-0.15,1.34,0.14,1.55c4.31,3.03,8.58,6.11,13.08,8.84c1.26,0.76,3.21,0.61,4.83,0.53c3.64-0.18,7.3-0.99,10.9-0.8
			c5.13,0.27,8.53,3.57,10.93,7.89c1.07,1.92,0.67,3.66-0.75,4.67c-1.59,1.12-3.35,1.02-4.91-0.49c-1.2-1.16-2.27-2.45-3.31-3.76
			c-1.22-1.52-2.59-2.12-4.55-1.51c-2.95,0.91-5.97,1.58-8.91,2.5c-2.65,0.82-5.15,0.69-7.67-0.48c-5.89-2.73-11.81-5.39-17.72-8.08
			c-0.57-0.26-1.15-0.52-2.07-0.93c0.09,0.64,0.07,1.02,0.22,1.33c0.09,0.19,0.42,0.27,0.64,0.39c1.27,0.71,3.09,1.15,3.66,2.23
			c0.52,0.99-0.37,2.68-0.56,4.08c-0.38,2.92-0.7,5.85-1.12,9.33c0.81-0.67,1.15-0.98,1.51-1.26c3.03-2.37,6.03-4.79,9.15-7.03
			c0.61-0.44,1.82-0.37,2.63-0.13c1.59,0.47,3.07,1.34,4.67,1.81c1.56,0.47,3.22,0.65,5.15,1.02c-0.17,0.82-0.27,1.96-0.64,3
			c-1.46,4.05-3.06,8.05-4.49,12.11c-0.68,1.93-1.25,3.94-1.55,5.96c-0.42,2.89,1.07,4.68,3.89,4.32c2-0.25,4.12-1.08,5.75-2.27
			c2.05-1.49,3.65-3.59,5.44-5.43c0.41-0.42,0.76-0.88,1.2-1.25c1-0.86,1.96-2.21,3.47-1.24c1.48,0.95,1.57,2.67,0.82,3.98
			c-1.54,2.72-3.15,5.47-5.18,7.81c-2.59,3-5.61,5.64-8.47,8.4c-0.78,0.76-1.63,1.47-2.52,2.1c-2.12,1.51-3.91,1.2-5.48-0.91
			c-0.5-0.67-0.88-1.42-1.34-2.12c-1.1-1.71-2.17-2.07-3.89-1.25c-1.64,0.78-2.18,2.29-1.39,3.69c1.18,2.08,2.53,4.23,4.31,5.77
			c5.34,4.62,11.9,6.61,18.76,7.38c21.28,2.4,38.91-4.58,52.28-21.4c6.19-7.79,9.67-16.89,10.86-26.78
			c1.61-13.41-1.61-25.61-8.4-37.28c-8.68-14.94-30.27-28.94-55.23-25.02c-0.64,0.1-1.27,0.2-1.91,0.28
			c-2.53,0.3-4.6-1.11-5.02-3.42c-0.44-2.42,1.02-4.58,3.6-5.08c5.98-1.15,12.02-1.41,18.06-0.78c14.71,1.52,27.73,7.1,38.17,17.56
			c22.77,22.82,25.16,54.18,11.48,78.4c-2.19,3.88-5.1,7.41-7.96,10.86c-25.08,30.2-77.52,30.65-102.63-8.34
			c-9.89-15.35-12.47-32-7.85-49.69c1.47-5.65,4.63-10.27,9.21-13.92c1.84-1.47,1.73-1.93-0.38-2.96c-2.89-1.41-4.53-3.79-4.84-6.96
			c-0.42-4.28,3.49-7.53,7.67-6.4c0.98,0.26,1.57,0.33,2.27-0.61c3.37-4.5,7.99-5.9,13.34-4.84c6.12,1.22,11.31,4.23,15.36,9
			C56.94,34.47,57.44,39.52,54.89,44.84z M39.19,35.82c-0.12-0.48-0.21-0.85-0.32-1.21c-1.06-3.5-3.79-5.72-7.26-5.92
			c-3.39-0.19-6.42,1.8-7.84,5.16c-2.71,6.39,0.21,14.48,6.48,17.97c6.3,3.5,14.68,1.76,18.68-3.89c1.54-2.18,2-4.57,1.22-7.14
			C48.79,36.4,44.69,34.5,39.19,35.82z M20.37,37.77c0.3-1.92,0.92-3.72,0.73-5.44c-0.12-1.05-1.38-2.09-2.35-2.85
			c-0.23-0.18-1.68,0.59-2,1.21C15.51,33.05,17.54,36.98,20.37,37.77z M47.01,53.08c1.55,1.74,4.99,1.99,7.03,0.54
			c1.03-0.73,1.9-1.64,1.17-3.05c-0.55-1.07-2.73-1.71-3.76-1C49.91,50.64,48.49,51.9,47.01,53.08z"/>
		<path class="st0" d="M39.19,35.82c5.5-1.32,9.61,0.58,10.95,4.96c0.79,2.57,0.32,4.96-1.22,7.14c-4,5.66-12.39,7.4-18.68,3.89
			c-6.27-3.49-9.18-11.58-6.48-17.97c1.42-3.36,4.45-5.35,7.84-5.16c3.47,0.2,6.2,2.42,7.26,5.92
			C38.98,34.97,39.06,35.34,39.19,35.82z M33.39,34.71c-1.58-1.34-2.73-1.32-3.81-0.1c-1.04,1.17-1.17,2.99-0.16,3.83
			c1.32,1.09,2.46,0.6,3.56-0.66C31.37,36.62,32.05,35.65,33.39,34.71z M45.03,41.41c-1.58-1.29-2.76-1.26-3.82-0.08
			c-1.02,1.13-1.15,3-0.17,3.81c1.3,1.07,2.44,0.63,3.52-0.65C42.98,43.29,43.72,42.33,45.03,41.41z"/>
		<path class="st0" d="M20.37,37.77c-2.83-0.79-4.86-4.72-3.62-7.09c0.33-0.63,1.77-1.39,2-1.21c0.97,0.76,2.23,1.8,2.35,2.85
			C21.29,34.05,20.67,35.86,20.37,37.77z"/>
		<path class="st0" d="M47.01,53.08c1.48-1.18,2.9-2.44,4.45-3.52c1.02-0.71,3.21-0.06,3.76,1c0.72,1.41-0.15,2.32-1.17,3.05
			C52.01,55.07,48.56,54.82,47.01,53.08z"/>
		<path class="st1" d="M33.39,34.71c-1.34,0.94-2.02,1.91-0.41,3.07c-1.09,1.26-2.24,1.76-3.56,0.66c-1.02-0.84-0.88-2.66,0.16-3.83
			C30.66,33.39,31.81,33.37,33.39,34.71z"/>
		<path class="st1" d="M45.03,41.41c-1.31,0.92-2.05,1.88-0.46,3.08c-1.08,1.28-2.22,1.72-3.52,0.65c-0.98-0.81-0.85-2.68,0.17-3.81
			C42.27,40.14,43.45,40.11,45.03,41.41z"/>
	</g>
</g>
<rect x="163.09" y="47.36" class="st0" width="328.25" height="49.29"/>
<text transform="matrix(1 0 0 1 163.0918 83.5628)"><tspan x="0" y="0" class="st2 st3 st4">Speed</tspan><tspan x="140.5" y="0" class="st1 st3 st4">monkey</tspan></text>
<rect class="st0" width="491.34" height="145.14"/>
</svg>
