<?xml version="1.0" encoding="utf-8"?>
<!-- Generator: Adobe Illustrator 23.0.2, SVG Export Plug-In . SVG Version: 6.00 Build 0)  -->
<svg version="1.1" id="Calque_1" xmlns="http://www.w3.org/2000/svg" xmlns:xlink="http://www.w3.org/1999/xlink" x="0px" y="0px"
	 viewBox="0 0 1628 368" style="enable-background:new 0 0 1628 368;" xml:space="preserve">
<style type="text/css">
	.st0{fill:#3E417E;}
</style>
<g>
	<path class="st0" d="M2,263.8c15,1.2,32.4,3.9,47.4,3.9c17.4,0,22.1-19,22.1-41.1v-5.5C70.7,194.3,0,171,0,127.5
		c0-30,0-52.9,47.4-52.9l37.5,5.5c0,13.8-5.9,17.8-13.8,17.8c-2,0-3.9-0.4-5.9-0.8L49,94.8c-26.8,0-27.2,13-27.2,30
		c0,30.4,73.4,56.5,73.4,92.8c0,32.4-2,73-45.4,73c-15.4,0-32.4-3.9-47.8-5.9V263.8z"/>
	<path class="st0" d="M135.4,77c22.5,0,22.9,0,22.9,7.9l31.6-10.7c50.1,0,54.1,34.4,54.1,109.8c0,78.2-4.3,107.8-55.7,107.8
		l-30-18.2V368c-22.9,0-22.9,0-22.9-18.2V77z M187.6,270.9c29.2,0,33.2-24.1,33.2-87.3c0-56.9-3.9-88.4-32.8-88.4l-30.8,9.9l1.6,9.9
		v128.3l-2,9.9L187.6,270.9z"/>
	<path class="st0" d="M384.6,285.1c-16.2,3.6-29.6,6.7-46.2,6.7c-54.9,0-54.9-28.4-54.9-106.6c0-78.6,0-111,54.9-111
		c45.4,0,45.4,31.2,45.4,87.7l1.6,23.3h-80.6l1.6,9.9c0,55.3,0,75,32,75c16.6,0,30.8-1.6,46.2-5.1V285.1z M361.3,153.6
		c0-37.9-2.4-58.4-22.9-58.4c-26.8,0-29.6,16.6-29.6,47.8V154l-1.6,9.9h56.1L361.3,153.6z"/>
	<path class="st0" d="M524,285.1c-16.2,3.6-29.6,6.7-46.2,6.7c-54.9,0-54.9-28.4-54.9-106.6c0-78.6,0-111,54.9-111
		c45.4,0,45.4,31.2,45.4,87.7l1.6,23.3h-80.6l1.6,9.9c0,55.3,0,75,32,75c16.6,0,30.8-1.6,46.2-5.1V285.1z M500.7,153.6
		c0-37.9-2.4-58.4-22.9-58.4c-26.8,0-29.6,16.6-29.6,47.8V154l-1.6,9.9h56.1L500.7,153.6z"/>
	<path class="st0" d="M614,291.8c-51.7,0-51.7-30-51.7-108.2c0-78.2,0.8-109.4,53.7-109.4l29.2,11.1V0c22.9,0,22.9,0,22.9,18.2V289
		c-22.9,0-22.9,0-22.9-20.9L614,291.8z M645.2,243.2V115.3l1.6-9.9l-32.4-10.3c-28.4,0-28.8,30-28.8,84.1c0,66.3-0.8,91.6,28.8,91.6
		l32.4-17.8L645.2,243.2z"/>
	<path class="st0" d="M884.5,183.6c0-77,0.4-88.4-26.1-88.4l-36.7,12.2l1.6,9.9V289c-22.9,0-22.9,0-22.9-18.2l-0.4-87.3
		c-0.4-56.9,3.2-88.4-25.7-88.4L737.2,109l1.6,9.9V289c-23.3,0-23.3,0-23.3-18.2V77c23.3,0,23.3,0,23.3,11.8l35.5-14.6
		c19.3,0,34.7,7.9,41.9,16.6l42.3-16.6c49.4,0,49.8,11.8,49.8,109.8v105c-23.7,0-23.7,0-23.7-18.2V183.6z"/>
	<path class="st0" d="M949.6,182c0-78.6,0-107.8,54.1-107.8c53.7,0,53.7,29.6,53.7,107.8c0,78.2,0.4,109.8-53.7,109.8
		S949.6,260.6,949.6,182z M1034.1,191.1c0-69.5,2-96-30.4-96c-30.4,0-30.8,22.9-30.8,82.5c0,66.3-1.2,93.2,30.8,93.2
		C1033.3,270.9,1034.1,247.6,1034.1,191.1z"/>
	<path class="st0" d="M1186.5,183.6c0-76.6,0-88.4-24.9-88.4L1123,109l1.6,9.9V289c-23.3,0-23.3,0-23.3-18.2V77
		c23.3,0,23.3,0,23.3,11.8l35.5-14.6c49.8,0,49.8,17.4,49.8,109.8v105c-23.3,0-23.3,0-23.3-18.2V183.6z"/>
	<path class="st0" d="M1257.2,0c23.3,0,23.3,0,23.3,18.2V289c-23.3,0-23.3,0-23.3-18.2V0z M1338.2,289l-52.9-115.7l47.4-96.3h24.1
		l-47.8,96.3l54.9,115.7H1338.2z"/>
	<path class="st0" d="M1492.6,285.1c-16.2,3.6-29.6,6.7-46.2,6.7c-54.9,0-54.9-28.4-54.9-106.6c0-78.6,0-111,54.9-111
		c45.4,0,45.4,31.2,45.4,87.7l1.6,23.3h-80.6l1.6,9.9c0,55.3,0,75,32,75c16.6,0,30.8-1.6,46.2-5.1V285.1z M1469.3,153.6
		c0-37.9-2.4-58.4-22.9-58.4c-26.8,0-29.6,16.6-29.6,47.8V154l-1.6,9.9h56.1L1469.3,153.6z"/>
	<path class="st0" d="M1521.4,349.4c25.7,0,39.5-20.5,39.5-45c0-8.7-0.4-9.9-41.9-227.4c22.9,0,22.9,0,26.5,18.2l27.6,166.2h5.1
		L1607.1,77c17.8,0,20.9,0,20.9,7.9c0,5.5-2.4,31.6-38.3,204.1c-8.3,40.3-8.7,79-68.3,79V349.4z"/>
</g>
</svg>
