<?xml version="1.0" encoding="UTF-8"?>
<svg width="25px" height="16px" viewBox="0 0 25 16" version="1.1" xmlns="http://www.w3.org/2000/svg" xmlns:xlink="http://www.w3.org/1999/xlink">
    <!-- Generator: Sketch 51.3 (57544) - http://www.bohemiancoding.com/sketch -->
    <title>comassections</title>
    <desc>Created with Sketch.</desc>
    <defs></defs>
    <g id="HOME-ALL" stroke="none" stroke-width="1" fill="none" fill-rule="evenodd">
        <g id="SKYRUSH_DEV_16" transform="translate(-1007.000000, -6016.000000)" fill="#E0E3EF">
            <g id="TESTIMONIALS" transform="translate(490.000000, 6016.000000)">
                <g id="comassections">
                    <path d="M539.188766,6.32258322 C540.853229,7.12747765 542,8.82179389 542,10.7817129 C542,13.520042 539.761424,15.7398964 537,15.7398964 C534.238576,15.7398964 532,13.520042 532,10.7817129 C532,9.42376132 532.550515,8.19331408 533.442305,7.29786112 C533.482116,7.20315163 533.531473,7.11249358 533.589747,7.02733241 L537.802517,0.870754297 C538.426287,-0.0408290722 539.670938,-0.274147564 540.582521,0.349622859 C540.588449,0.353678888 540.594354,0.357766817 540.600238,0.36188647 L540.815433,0.512568146 C541.720244,1.14612318 541.94014,2.39321474 541.306585,3.29802511 L539.188766,6.32258322 Z M524.188766,6.32258322 C525.853229,7.12747765 527,8.82179389 527,10.7817129 C527,13.520042 524.761424,15.7398964 522,15.7398964 C519.238576,15.7398964 517,13.520042 517,10.7817129 C517,9.42376132 517.550515,8.19331408 518.442305,7.29786112 C518.482116,7.20315163 518.531473,7.11249358 518.589747,7.02733241 L522.802517,0.870754297 C523.426287,-0.0408290722 524.670938,-0.274147564 525.582521,0.349622859 C525.588449,0.353678888 525.594354,0.357766817 525.600238,0.36188647 L525.815433,0.512568146 C526.720244,1.14612318 526.94014,2.39321474 526.306585,3.29802511 L524.188766,6.32258322 Z"></path>
                </g>
            </g>
        </g>
    </g>
</svg>