<?xml version="1.0" encoding="utf-8"?>
<!-- Generator: Adobe Illustrator 23.0.1, SVG Export Plug-In . SVG Version: 6.00 Build 0)  -->
<svg version="1.1" id="Calque_1" xmlns="http://www.w3.org/2000/svg" xmlns:xlink="http://www.w3.org/1999/xlink" x="0px" y="0px"
	 viewBox="0 0 345.87 345.87" style="enable-background:new 0 0 345.87 345.87;" xml:space="preserve">
<style type="text/css">
	.st0{fill:#462916;}
	.st1{fill:#F9D8BC;}
	.st2{fill:#F8D8BC;}
	.st3{fill:#462917;}
	.st4{fill:#3E3A38;}
	.st5{fill:#FFFFFF;}
	.st6{fill:#403C3A;}
	.st7{fill:#55514F;}
	.st8{fill:#595553;}
	.st9{fill:#EA6160;}
	.st10{fill:#5A5654;}
	.st11{fill:#403C3A;stroke:#403C3A;stroke-miterlimit:10;}
	.st12{fill:#492914;}
	.st13{fill:none;stroke:#000000;stroke-width:16;stroke-miterlimit:10;}
	.st14{fill:none;stroke:#492914;stroke-width:16;stroke-miterlimit:10;}
	.st15{fill:none;}
</style>
<g>
	<path class="st0" d="M239.27,173.58c-1.76,3.27-1.98,5.78-2.62,9.65c-1.05,6.34-1.8,10.86-3.9,15.25
		c-1.56,3.27-3.47,5.62-4.81,7.08c4.81,2.04,5.07,7.05,7.21,10.88c3.18,5.68,0.69,11.38-0.08,16.82c-0.57,4.09-5.24,5.16-9.17,4.47
		c-3.06-0.53-4.15,0.11-4.06,3.22c0.04,1.64-0.26,3.36-0.78,4.92c-1.53,4.58-5.18,6.44-9.67,6.44c-4.72,0-6.1-3.41-6.84-7.44
		c-0.62-3.36-0.11-6.62,0.29-11.15c-10.1,12.49-22.12,19.14-37.53,17.46c-14.83-1.62-26.97-9.02-38.44-19.85
		c0.01,4.58,0.93,8.15,0.28,11.72c-0.72,3.94-1.77,7.45-6.62,7.61c-4.89,0.16-8.5-1.82-9.94-6.75c-0.4-1.38-0.45-2.88-0.55-4.33
		c-0.18-2.62,0.05-4.37-4.15-3.47c-6.5,1.39-9.3-2.48-10.08-9.62c-0.56-5.12,0.01-9.4,1.85-14.31c0.82-2.18,1.88-4.39,4.04-6.17
		c1.95-1.61,4.1-2.18,5.65-2.46c9.28-1.69,93.97-10.52,103.54-13.37c3.09-0.92,5.79-2.14,5.79-2.14c3.98-1.81,6.73-3.79,6.76-3.74
		c0.05,0.07-3.74,2.37-3.74,2.37c0,0.01,1.53-0.94,3.33-2.13c0,0,3.17-2.1,5.93-4.24c6.09-4.71,9.95-10.42,10.24-10.19
		C241.38,170.22,240.31,171.65,239.27,173.58z"/>
	<path class="st0" d="M237.97,174.01c1.23-1.37,3.12-3.86,3.86-7.39c0.62-2.98,0.33-6.09-1.44-10.66
		c-2.38-6.17-4.88-8.43-9.84-15.56c-5.76-8.29-8.66-12.55-9.69-18.15c-0.52-2.82-1.6-9.06,1.89-14.79c1.2-1.97,2.81-3.7,4.83-5.13
		c7.36-5.23,18.86-5.57,26.61-0.77c6.49,4.01,10.08,11.83,8.85,19.31c-0.34,2.1-0.62,4.4-3.49,4.25c-3.17-0.17-3.36-2.48-3.16-4.96
		c0.46-5.9-1.31-10.82-6.87-13.52c-5.77-2.8-11.66-2.86-17.25,0.65c-4.77,2.99-6.47,7.3-5.33,12.85
		c1.48,7.23,6.04,12.67,10.37,18.24c4.75,6.12,8.88,12.46,10.64,20.21c1.71,7.51,0.34,14.56-4.82,19.75
		c-4.47,4.49-8.75,15.24-8.75,15.24"/>
	<path class="st0" d="M233.62,175.69c0.07-0.39,0.22-0.65,0.39-0.9"/>
	<path class="st0" d="M213.21,179.51c0.77-0.67,1.62-0.83,1.86-0.88c3.5-0.73,10.96-4.32,14.05-8.64
		c3.84-5.37,1.56-12.84,1.14-14.23c-2.23-7.33-8.4-11.24-10.12-11.62c-1.2-0.26-2.25-0.21-4.01-0.94c-3.19-1.33-5.48-3.85-6.73-6.49
		c-6.17-12.97-17.35-17.63-30.09-20.64c-8.77-2.07-18.09-1.83-26.39-6.38c-0.81,3.51,2.39,5.23,3.04,7.99
		c-5.11,0.41-9.72-1.7-14.63-2.76c-1.07,5.55,3.41,7.06,5.64,8.85c-1.9,2.3-3.45,4.57-5.41,6.41c-1.77,1.67-3.79,2.93-6.68,2.24
		c-4.57-1.1-8.22-0.92-10.95,0.83c-0.16,0.1-0.29,0.19-0.56,0.37c-3.23,2.2-4.6,3.95-4.6,3.95c0,0-1.18,1.5-1.9,3.92
		c-1.69,5.7,0.92,19.56,7.42,28.7c0.88,1.23,3.51,4.75,2.79,8.7c-0.16,0.86-0.43,1.53-0.63,1.95c-1.31,0.42-3.11,1.11-5.1,2.26
		c-0.61,0.36-1.61,0.97-3.25,2.23c-2.13,1.63-4.73,3.64-5.61,4.94c-3.09,4.6-3.58,10.87-2.49,13.37
		c6.46,14.81,107.46-14.77,107.46-14.75c0,0,0,0,0,0c-0.06,0.02-3.2,1.72-3.05,2.03c0.22,0.45,7.4-2.54,7.22-3.14
		c-0.14-0.46-4.52,1.27-7.97-0.84c-0.79-0.48-1.14-0.98-1.42-1.33C211.01,184.06,211.56,180.95,213.21,179.51z"/>
	<path class="st1" d="M204.83,151.53c-0.04,5.12-1.6,9.78-4.14,14.19c-0.9,1.55-1.99,2.78,0.65,4.42
		c8.05,5.01,8.18,13.88,0.47,19.67c-3.69,2.78-8.04,5.13-12.52,5.11c-5.96-0.03-10.53,2.72-15.16,5.46
		c-5.92,3.5-10.42,2.33-14.7-2.75c-1.63-1.94-2.49-4.34-6.76-4.21c-8.63,0.27-20.11-10.94-22.11-19.63
		c-1.75-7.58,1.19-12.79,8.79-14.35c2.6-0.53,3-1.06,2.36-3.39c-0.6-2.18-0.99-4.46-1.09-6.72c-0.31-6.8,2.36-12.4,8.28-15.68
		c6.06-3.36,12.1-1.21,16.65,3.06c4.1,3.85,7.47,4.5,12.31,1.74c3.6-2.05,7.85-2.69,12.08-2.53
		C199.27,136.28,204.89,142.19,204.83,151.53z"/>
	<path class="st1" d="M170.23,225.75c-8.73-0.14-16.16-0.94-23.38-3.13c-1.19-0.36-3.38-0.16-2.61-2.33
		c0.49-1.41,1.51-3.68,3.51-2.69c6.82,3.38,6.6-2.5,8.21-5.97c0.61-1.31,1.08-2.7,1.52-4.07c0.84-2.61,1.51-4.21,5.07-2.48
		c4.46,2.17,8.35-0.83,12.05-3.17c6.19-3.91,7.15-3.49,8.21,3.54c0.4,2.67,0.7,5.38,1.33,7.99c0.66,2.7,0.27,6.79,5.45,4.43
		c2.16-0.99,3.61,1.09,4,2.88c0.47,2.21-1.78,1.72-3.01,2.12C183.57,225.15,176.3,225.52,170.23,225.75z"/>
	<path class="st1" d="M104.2,217.59c-0.22-3.6-3.41-7.97,2.29-10.12c5.16-1.96,8.98,0.44,11.73,4.55c5.83,8.7,8.53,18.42,8.27,28.86
		c-0.07,2.91,0.29,6.79-4.3,6.99c-4.59,0.21-6.79-2.58-7.31-6.83c-0.44-3.57,0.64-7.7-3.9-9.58c-4.03-3.72-0.58-7.12,0.45-10.62
		C106.18,223.79,104.83,223.19,104.2,217.59z"/>
	<path class="st1" d="M222.26,233.77c-3.43,0.62-3.16,3.41-3.27,5.83c-0.12,2.52-0.23,4.97-1.66,7.18
		c-1.58,2.43-4.06,2.93-6.56,2.66c-2.44-0.27-3.24-2.35-3.41-4.57c-0.98-12.31,2.15-23.58,9.74-33.23
		c4.24-5.39,10.79-4.17,13.91,1.87c-0.92,2.17,0.56,4.46-0.45,6.69c-0.93,2.04-2.1,3.64-4.48,3.62c-1.93-0.01-4.17,0.14-4.14-3.07
		C223.02,225.24,227.45,229.31,222.26,233.77z"/>
	<path class="st1" d="M124.89,196.27c1.06,0.52,1.39-0.46,1.92-0.96c7.99-7.59,8.13-7.61,13.42,1.81c1,1.77,1.79,2.54,4.16,2.18
		c2.88-0.43,5.08,1.73,6.42,4.14c1.41,2.55-0.78,4.21-2.15,5.97c-1.78,2.3-3.57,4.58-5.38,6.85c-0.72,0.9-0.9,2.63-2.54,2.26
		c-1.62-0.37-1.72-2-2.32-3.31c-0.96-2.09,1.83-4.57-0.78-6.28c-2.4-1.58-0.45-4.4-2.14-6.43c-0.4,2.64-0.54,5.17-1.24,7.55
		c-0.45,1.53-0.27,4.12-3.15,3.78c-2.23-0.26-4-1.28-4.57-3.59c-1.14-4.63-1.97-9.31-1.5-14.12L124.89,196.27z"/>
	<path class="st1" d="M220.25,165.76c1.58-2.21,1.36-4.15-0.18-5.72c-3.17-3.23-6.49-0.48-9.84,0.21c-0.86-2.7,0.75-4.9,1.05-7.28
		c0.83-6.57,6.73-9.02,11.94-5.09c7.14,5.39,5.61,22.16-2.41,26.21c-3.97,2.01-7.81,1.15-11.15-1.24c-1.79-1.28-3.27-3.76-2.33-5.95
		c1.38-3.17,4.54-4.61,7.74-5.78C219.34,159.55,217.97,164.57,220.25,165.76z"/>
	<path class="st1" d="M133.67,150.2c2.7,5.83,1.38,9.49-5.42,11.38c-4.7,1.31-5.96-3.19-7.17-6.71c-2.29-6.69-0.44-12.67,3.35-18.22
		c1.95-2.85,4.67-3.95,8.14-2.86c3.87,1.21,4.32,3.97,3.53,7.36c-0.09,0.18-0.28,0.37-0.26,0.55c0.47,5.35-1.32,7.58-5.27,5.34
		C130.27,146.94,132.49,148.69,133.67,150.2z"/>
	<path class="st1" d="M211.42,210.26c-0.42,1.6-0.73,3.24-1.3,4.78c-0.56,1.52-2.09,2.11-3.48,2.32c-2.01,0.3-1.95-1.72-2.63-2.88
		c-0.65-1.09,0.38-3.68-2.8-2.44c-2.43,0.95-1.64,1.92-1.08,3.49c0.75,2.11,0.56,4.51-1.61,5.44c-2.13,0.91-2.2-1.92-3.36-2.91
		c-0.62-0.53-1.01-1.31-1.52-1.97c-6.03-7.67-6.02-7.63,3.18-11.22c2.2-0.86,2.1-3.41,3.26-5.06c1.6-2.27,2.93-4.88,6.22-2.21
		C213.52,200.34,214.83,203.6,211.42,210.26z"/>
	<path class="st2" d="M186.23,230.33c-3.21,7.19-8.46,10.51-15.51,11.05c-6.52,0.5-13.03,0.44-17.06-6.15
		c-0.75-1.23-1.78-2.66-1.05-4.04c0.94-1.77,2.54-0.35,3.83-0.2C166.16,232.11,175.86,232.06,186.23,230.33z"/>
	<path class="st1" d="M125.04,196.11c-4.75,3.95,0.4,8.91-1.7,13.49c-3.89-0.49-4.47-3.58-4.82-6.85c-2.43-4.44-1.62-8.42,1.7-12.05
		c0.29-0.17,0.59-0.33,0.88-0.5c0.68-0.37,1.47-0.63,2.03-1.14c1.95-1.74,3.92-1.33,5.27,0.44c1.54,2.03-1.2,2.49-1.92,3.7
		c-0.59,1-1.91,1.59-1.59,3.06C124.89,196.27,125.04,196.11,125.04,196.11z"/>
	<path class="st1" d="M218.73,206.12c-1.27,1.3-2.54,2.59-3.81,3.89c-0.62,0.16-1.63,0.07-1.55-0.4c0.82-5.33-3.05-8.91-4.8-13.27
		c2.26-2.72,4.41-0.65,6.59,0.15C220.14,198.29,221.25,201.53,218.73,206.12z"/>
	<path class="st3" d="M222.26,233.77c3.71-5.18-2.49-9.87-0.72-15.68c1.38,2.1,0.66,5.32,4.2,4.9c2.93-0.34,2.81-2.45,3.43-4.29
		c0.59-1.74,1.23-3.46,1.84-5.2c0.51,1.38,1.01,2.76,1.52,4.13c-0.3,2.76-0.56,5.55-3.1,7.33c-1.73,1.22-1.39,2.66-0.6,4.2
		c-0.01,0.42-0.01,0.84-0.02,1.26c-0.54,2.8-3.02,2.81-5.04,3.49C223.26,233.87,222.76,233.82,222.26,233.77z"/>
	<path class="st1" d="M117.44,202.66c-0.1,1.19,0.5,2.48-0.52,3.53c-5.29-6.7-5.42-11.68-0.39-16.8c1.89-1.92,3.71-3.13,4.57,0.82
		c0,0,0.16-0.05,0.16-0.05C117.56,193.58,117.22,198.03,117.44,202.66z"/>
	<path class="st1" d="M102.39,226.64c-2.34-2.57-3.41-5.53-2.2-8.91c0.52-1.47,1.58-2.7,2.58-0.14c1.83,1,0.98,4,3.64,4.57
		c2.6,0.56,4.26,2.6,2.58,4.99C106.98,230.02,104.42,229.16,102.39,226.64z"/>
	<path class="st1" d="M228.82,229.17c-1.34-0.48-3.49,0.72-3.8-1.9c-0.24-2.09,1.38-2.22,2.68-2.54c3.78-0.93,2.22-5.42,4.82-7.1
		C235.05,222.69,234.64,226.8,228.82,229.17z"/>
	<path class="st3" d="M102.39,226.64c1.17,0.33,2.32,0.82,3.51,0.96c1.13,0.13,2.55,0.38,2.78-1.44c0.18-1.4-0.23-2.58-1.69-2.76
		c-3.55-0.45-3.67-3.25-4.23-5.8c0.48,0,0.95,0,1.43,0c1.66,4.45,4.17,5.42,8.1,1.66c0.14,4.29-3.51,8.01-1.32,12.21
		c0,0-0.45,0.04-0.45,0.04l-0.45-0.1c-2.99-0.15-5.96-0.36-7.68-3.4C102.4,227.55,102.39,227.1,102.39,226.64z"/>
	<path class="st1" d="M102.4,228.01c2.09,2.19,5.93,0.44,7.68,3.4c-0.61,3.16-3.01,2.85-5.19,2.46c-2.27-0.41-4.22-1.59-4.84-4.01
		C99.5,227.76,100.66,227.42,102.4,228.01z"/>
	<path class="st1" d="M218.73,206.12c0.56-3.86-0.92-6.97-3.57-9.64c3.35-1.76,4.44-1.23,6.37,3.35
		C222.79,202.84,224.07,205.99,218.73,206.12z"/>
	<path class="st1" d="M223.76,233.92c0.45-2.94,3.42-2.24,5.04-3.49c1.56,1.09,3.92-3,4.71,0.33c0.6,2.5-1.77,4.01-4.19,4.4
		C227.38,235.48,225.19,236.22,223.76,233.92z"/>
	<path class="st3" d="M133.67,150.2c-2.55-3.54-5.19-2-8.21,1.01c2.28-6.99,3.1-7.26,8.88-3.93c1.39-1.82-0.03-4.47,1.74-6.14
		C136.39,144.46,136.91,147.83,133.67,150.2z"/>
	<path class="st3" d="M208.57,196.33c4.02,3.67,5.35,8.6,6.35,13.68c-0.96,3.08-2.23,1.67-3.5,0.25c1.74-5.61-1.09-9.38-5.11-12.66
		C207.07,197.18,207.82,196.75,208.57,196.33z"/>
	<path class="st3" d="M117.44,202.66c-2.39-5.29-1.04-9.43,3.82-12.5c-2.12,3.94-3.29,8.08-2.74,12.6
		C118.16,202.72,117.8,202.69,117.44,202.66z"/>
	<path class="st4" d="M147.65,172.55c4.04,1.31,8.09,2.62,12.13,3.93c0.76,2.31-1.92,4.92-2.73,3.15
		c-0.8-1.77,19.36,3.05,28.86-0.62c1.38-0.53,2.69-1.17,4.16-0.36c0.31,0.34,0.43,0.7,0.35,1.07c-0.07,0.37-0.16,0.56-0.25,0.56
		c-3.86,3.74-7.13,8.2-12.37,10.29c-0.53-0.16-1.05-0.38-1.55-0.63c-4.5-0.58-9.41-2.77-12.19,3.2c-0.26,0.85-0.67,1.41-1.63,0.8
		c-5.07-0.63-6.8-4.61-8.79-8.5c-2.27-4.44-1.13-10.21-6.23-12.84"/>
	<path class="st5" d="M189.88,178.43c-12.31,7.13-33.63,1.04-37.12-1.47c-7.78-5.59-0.48-3.32,7.02-0.48
		c0.92-0.02,1.84-0.04,2.76-0.06c6.27,2.53,12.83,0.66,19.23,1.23c0.22,0,0.59,0.01,1.04-0.01c2.99-0.12,4.15-0.98,5.57-0.43
		C188.75,177.35,189.32,177.67,189.88,178.43z"/>
	<path class="st6" d="M158.58,161.47"/>
	<path class="st6" d="M159.31,157.19c0.39,0.15-4.42-7.84-0.99-12.27c0.75-0.97,1.38-2.46-0.07-3.19c-1.32-0.67-2.41,0.59-2.97,1.65
		c-2.41,4.53-3.19,9.28-2.27,14.44c0.63,3.54,5.14,3.92,5.58,3.65C159.7,162.2,159.31,157.19,159.31,157.19"/>
	<path class="st7" d="M162.43,193.93c0.42-0.32,0.84-0.64,1.26-0.96c4.07-2.78,8.59-3.61,13.42-3.1c0.34,0.12,0.57,0.35,0.68,0.69
		C173.13,193.75,168.27,196.11,162.43,193.93z"/>
	<path class="st8" d="M187.64,177.04c0.01,0.15-2.87,0.49-5.23,0.68c-7.29,0.59-12.86,0.08-14.11-0.04
		c-11.45-1.11-20.99-4.72-20.9-5.1c0.03-0.13,1.13,0,1.89,0.15c1.29,0.26,2.03,0.71,2.95,1.11c0,0,0.89,0.39,3.62,1
		C160.83,175.96,187.61,176.58,187.64,177.04z"/>
	<path class="st9" d="M177.11,189.86c-4.35,1.59-8.61,3.54-13.42,3.1c-0.37-0.18-1.09-0.41-1.07-0.54c0.56-3.81,3.75-4.53,6.62-4.8
		C171.94,187.37,175.61,185.33,177.11,189.86z"/>
</g>
<polyline class="st10" points="83.01,173.01 82.82,173.19 82.91,173.32 "/>
<path class="st11" d="M160.75,166.82"/>
<g>
	<polygon class="st6" points="167.81,166 170.27,171.21 166.27,172.52 163.37,169.87 	"/>
	<g>
		<path class="st6" d="M166.73,166.63c0.82,1.74,1.64,3.47,2.46,5.21c0.25-0.61,0.5-1.22,0.75-1.84c-1.33,0.44-2.67,0.88-4,1.31
			c0.41,0.11,0.81,0.21,1.22,0.32c-0.97-0.89-1.93-1.77-2.9-2.66c0,0.59,0,1.18,0,1.77c1.48-1.29,2.96-2.58,4.44-3.86
			c1.22-1.06-0.56-2.82-1.77-1.77c-1.48,1.29-2.96,2.58-4.44,3.86c-0.49,0.43-0.47,1.34,0,1.77c0.97,0.89,1.93,1.77,2.9,2.66
			c0.32,0.29,0.78,0.46,1.22,0.32c1.33-0.44,2.67-0.88,4-1.31c0.82-0.27,1.1-1.09,0.75-1.84c-0.82-1.74-1.64-3.47-2.46-5.21
			C168.2,163.92,166.05,165.19,166.73,166.63z"/>
	</g>
</g>
<path class="st8" d="M182.5,178.36"/>
<path class="st8" d="M146.66,172.79"/>
<path class="st10" d="M151.13,189.9"/>
<path class="st10" d="M144.68,184.66"/>
<path class="st3" d="M-76.66-139.08"/>
<path class="st0" d="M219.92,133.2"/>
<path class="st6" d="M182.25,158.91c0.39,0.15-4.42-7.84-0.99-12.27c0.75-0.97,1.38-2.46-0.07-3.19c-1.32-0.67-2.41,0.59-2.97,1.65
	c-2.41,4.53-3.19,9.28-2.27,14.44c0.63,3.54,5.14,3.92,5.58,3.65C182.64,163.91,182.25,158.91,182.25,158.91"/>
<path class="st1" d="M244.96,201.63"/>
<path class="st0" d="M254.94,213.01"/>
<path class="st0" d="M208.8,148.21"/>
<path class="st0" d="M75.69,71.41"/>
<path class="st0" d="M218.7,188.2"/>
<path class="st0" d="M239.84,193.23"/>
<g>
	<path class="st12" d="M89.6,91.67c1.39-0.28,3.1-1.04,4.46-2.31c2.01-1.89,2.19-4.05,0.75-5.59c-1.34-1.42-2.91-1.47-5.71-0.33
		c-3.31,1.45-6.06,1.61-8.07-0.54c-2.23-2.37-1.92-5.98,1.04-8.76c1.56-1.46,3.03-2.16,4.07-2.41l0.96,2.11
		c-0.75,0.2-2.19,0.7-3.57,1.99c-2.08,1.95-1.7,3.94-0.73,4.98c1.34,1.42,2.92,1.25,5.79,0.1c3.51-1.42,5.99-1.41,8.09,0.83
		c2.21,2.35,2.37,6.02-1.22,9.39c-1.47,1.38-3.48,2.46-4.8,2.68L89.6,91.67z"/>
	<path class="st12" d="M97.64,75.24c-1.11-1.57-2.05-2.8-2.92-3.93l2-1.41l1.58,2.03l0.05-0.04c-0.14-2.14,0.68-4.04,2.68-5.45
		c2.96-2.09,6.96-1.16,9.59,2.57c3.11,4.41,1.96,8.48-0.93,10.52c-1.62,1.14-3.54,1.44-5.13,0.74l-0.05,0.04l4.7,6.66l-2.2,1.55
		L97.64,75.24z M102.15,76.95c0.23,0.33,0.5,0.6,0.74,0.84c1.5,1.26,3.59,1.38,5.18,0.25c2.36-1.66,2.37-4.55,0.38-7.36
		c-1.73-2.46-4.51-3.65-6.86-1.99c-1.52,1.07-2.17,3.16-1.42,5.14c0.12,0.33,0.28,0.71,0.49,1.02L102.15,76.95z"/>
	<path class="st12" d="M116.38,66.66c1.73,3.26,4.52,3.54,6.95,2.29c1.74-0.89,2.63-1.73,3.35-2.58l1.3,1.53
		c-0.66,0.82-1.9,2.01-4.02,3.1c-4.11,2.1-7.95,0.65-10.01-3.38c-2.06-4.03-1.31-8.42,2.58-10.41c4.36-2.23,7.48,1.01,8.74,3.47
		c0.25,0.5,0.4,0.91,0.5,1.17L116.38,66.66z M122.61,61.28c-0.76-1.56-2.65-3.62-5.39-2.23c-2.46,1.26-2.38,4.07-1.71,5.85
		L122.61,61.28z"/>
	<path class="st12" d="M131.4,59.62c1.29,3.46,4.01,4.11,6.59,3.2c1.84-0.65,2.84-1.36,3.66-2.11l1.09,1.69
		c-0.76,0.73-2.15,1.74-4.4,2.54c-4.36,1.54-7.97-0.41-9.48-4.68c-1.51-4.27-0.18-8.52,3.94-9.97c4.62-1.63,7.28,2,8.2,4.6
		c0.19,0.53,0.27,0.96,0.33,1.23L131.4,59.62z M138.3,55.12c-0.55-1.65-2.15-3.94-5.04-2.92c-2.6,0.92-2.9,3.72-2.47,5.57
		L138.3,55.12z"/>
	<path class="st12" d="M155.57,37.63l3.56,17.78c0.26,1.31,0.59,2.79,0.88,3.77l-2.4,0.48l-0.63-2.53l-0.06,0.01
		c-0.49,1.81-2.04,3.41-4.44,3.89c-3.56,0.71-6.89-1.75-7.79-6.22c-1.01-4.89,1.43-8.51,5.01-9.22c2.25-0.45,3.98,0.31,4.89,1.36
		l0.06-0.01l-1.76-8.78L155.57,37.63z M155.47,51.03c-0.07-0.33-0.19-0.78-0.35-1.1c-0.74-1.62-2.48-2.73-4.48-2.33
		c-2.77,0.55-3.92,3.31-3.27,6.57c0.6,2.98,2.55,5.15,5.44,4.57c1.79-0.36,3.2-1.87,3.28-3.98c0.02-0.38-0.02-0.75-0.11-1.18
		L155.47,51.03z"/>
	<path class="st12" d="M189.21,49.38c-0.05-2.92-0.1-6.42,0.03-9.03l-0.09,0c-0.8,2.42-1.77,4.99-2.93,7.83l-4.07,9.99l-2.04-0.08
		l-3-10.07c-0.88-2.98-1.62-5.71-2.11-8.21l-0.06,0c-0.16,2.6-0.45,6.09-0.75,9.22l-0.89,8.93l-2.57-0.1l2.24-20.82l3.44,0.13
		l3.18,10.23c0.77,2.6,1.4,4.92,1.84,7.11l0.09,0c0.61-2.09,1.43-4.35,2.46-6.95l4.09-9.96l3.44,0.13l0.52,20.93l-2.63-0.1
		L189.21,49.38z"/>
	<path class="st12" d="M211.3,55.12c-1.2,5.42-5.47,6.95-9.02,6.17c-3.97-0.88-6.38-4.46-5.36-9.09c1.08-4.9,4.93-7.07,8.99-6.17
		C210.13,46.95,212.3,50.64,211.3,55.12z M199.65,52.69c-0.71,3.21,0.6,6.04,3.2,6.62c2.54,0.56,4.98-1.41,5.71-4.71
		c0.55-2.48,0-5.91-3.14-6.6C202.27,47.31,200.26,49.91,199.65,52.69z"/>
	<path class="st12" d="M216.99,53.44c0.55-1.45,0.98-2.65,1.33-3.84l2.26,0.86l-0.74,2.37l0.06,0.02c1.2-1.07,3.32-1.75,5.64-0.87
		c1.94,0.74,4.51,3.05,2.67,7.86l-3.2,8.37l-2.55-0.97l3.09-8.08c0.86-2.26,0.74-4.46-1.66-5.38c-1.68-0.64-3.44,0.05-4.41,1.3
		c-0.24,0.27-0.46,0.69-0.63,1.12l-3.22,8.43l-2.55-0.97L216.99,53.44z"/>
	<path class="st12" d="M235.4,64.4l0.05,0.03c0.58-0.28,1.35-0.6,1.99-0.86l6.35-2.43l2.88,1.58l-8.05,2.63l1.55,10.92l-2.91-1.59
		l-1.09-8.79l-1.97,0.69l-2.71,4.95l-2.37-1.29l10.56-19.31l2.37,1.29L235.4,64.4z"/>
	<path class="st12" d="M247.22,72.73c-2.12,3.02-1.11,5.63,1.1,7.24c1.58,1.15,2.73,1.57,3.82,1.82l-0.77,1.85
		c-1.03-0.21-2.65-0.78-4.58-2.18c-3.74-2.72-4.18-6.8-1.52-10.46c2.66-3.66,6.92-4.98,10.45-2.4c3.96,2.88,2.48,7.13,0.86,9.36
		c-0.33,0.45-0.63,0.77-0.82,0.97L247.22,72.73z M254.84,75.86c1.05-1.39,2.03-4-0.45-5.81c-2.23-1.62-4.71-0.28-5.99,1.12
		L254.84,75.86z"/>
	<path class="st12" d="M265.36,76.75l-3.7,8.7c-0.43,0.96-0.97,2.07-1.41,2.89l0.04,0.04c0.82-0.46,1.83-1.08,2.85-1.62l8.21-4.36
		l2.1,1.98l-10.32,4.97c-4.95,2.4-7.73,3.4-10.19,3.3c-1.78-0.06-3.07-0.64-3.65-1.01l1.08-2.14c0.64,0.31,1.6,0.61,2.65,0.67
		c0.95,0.08,2.34-0.04,3.75-0.63c0.28-0.12,0.5-0.21,0.6-0.32s0.21-0.31,0.35-0.65l5.46-13.86L265.36,76.75z"/>
</g>
<g>
	<path class="st12" d="M49.33,224.93l16.92-14.02l1.07,2.71l-8.37,6.81c-2.29,1.87-4.37,3.53-6.44,4.95l0.02,0.06
		c2.46-0.34,5.23-0.5,8.11-0.64l10.9-0.51l1.06,2.68l-22.17,0.74L49.33,224.93z"/>
	<path class="st12" d="M68.3,246.09c-4.83,2.73-8.83,0.58-10.61-2.58c-2-3.53-0.95-7.72,3.18-10.06c4.37-2.47,8.55-1.06,10.6,2.55
		C73.58,239.76,72.29,243.84,68.3,246.09z M62.3,235.81c-2.86,1.62-4.09,4.48-2.77,6.8c1.28,2.27,4.37,2.76,7.31,1.1
		c2.21-1.25,4.39-3.94,2.81-6.75S64.78,234.41,62.3,235.81z"/>
	<path class="st12" d="M82.49,245.75l-3.48,2.54l2.3,3.15l-1.68,1.22l-2.3-3.15l-6.54,4.77c-1.5,1.1-2.04,2.14-1.15,3.37
		c0.42,0.58,0.81,0.95,1.08,1.17l-1.58,1.31c-0.49-0.3-1.1-0.88-1.73-1.73c-0.75-1.03-1.03-2.09-0.81-3.06
		c0.19-1.1,1.11-2.11,2.53-3.15l6.61-4.83l-1.37-1.88l1.68-1.23l1.37,1.88l2.9-2.12L82.49,245.75z"/>
	<path class="st12" d="M79.97,257.14c1.33-1.16,2.46-2.18,3.45-3.17l1.57,1.8l-2.16,2.01l0.08,0.09c1.97-0.81,4.01-0.41,5.21,0.97
		c0.2,0.23,0.32,0.42,0.44,0.65l-1.94,1.69c-0.14-0.25-0.3-0.48-0.54-0.76c-1.26-1.45-3.26-1.52-5.05-0.45
		c-0.32,0.2-0.69,0.44-1.04,0.74l-6.03,5.26l-1.77-2.03L79.97,257.14z"/>
	<path class="st12" d="M86.01,268.65c-2.46,2.75-1.77,5.46,0.23,7.32c1.43,1.33,2.53,1.88,3.57,2.25l-0.99,1.75
		c-1-0.33-2.54-1.09-4.29-2.71c-3.39-3.14-3.35-7.24-0.27-10.56s7.46-4.12,10.66-1.15c3.59,3.33,1.62,7.37-0.26,9.4
		c-0.38,0.41-0.72,0.69-0.93,0.87L86.01,268.65z M93.21,272.65c1.2-1.25,2.49-3.74,0.24-5.82c-2.02-1.88-4.64-0.83-6.08,0.41
		L93.21,272.65z"/>
	<path class="st12" d="M105.28,280.69c1.01-1.64,1.76-2.99,2.46-4.24l2.09,1.28l-1.24,2.26l0.05,0.03c1.91-0.97,3.98-0.97,6.07,0.31
		c3.09,1.9,3.81,5.94,1.42,9.82c-2.82,4.6-7.02,5.15-10.03,3.3c-1.69-1.04-2.71-2.69-2.7-4.42l-0.05-0.03l-4.27,6.95l-2.3-1.41
		L105.28,280.69z M105.48,285.5c-0.21,0.34-0.35,0.69-0.48,1.02c-0.57,1.87,0.15,3.84,1.82,4.86c2.46,1.51,5.12,0.38,6.92-2.55
		c1.57-2.56,1.57-5.58-0.88-7.09c-1.58-0.97-3.76-0.75-5.28,0.72c-0.26,0.24-0.55,0.54-0.74,0.85L105.48,285.5z"/>
	<path class="st12" d="M125.21,302.73l0.56-1.82l-0.08-0.04c-1.24,0.75-3.14,1.07-5.1,0.21c-2.78-1.21-3.35-3.79-2.48-5.78
		c1.45-3.32,5.2-3.85,10.5-1.51l0.12-0.28c0.5-1.14,1.08-3.32-1.74-4.54c-1.28-0.56-2.79-0.74-4.03-0.54l0.15-1.9
		c1.46-0.24,3.32-0.01,5.05,0.75c4.21,1.83,3.98,5.15,2.77,7.91l-2.24,5.14c-0.52,1.19-0.97,2.38-1.21,3.39L125.21,302.73z
		 M127.9,295.55c-2.7-1.25-6.01-2.11-7.17,0.56c-0.71,1.62,0.04,2.86,1.32,3.42c1.79,0.78,3.42,0.14,4.33-0.85
		c0.2-0.22,0.38-0.48,0.49-0.73L127.9,295.55z"/>
	<path class="st12" d="M136.46,295.91c0.53-1.69,0.95-3.15,1.28-4.5l2.28,0.71l-0.79,2.84l0.12,0.04c1.25-1.72,3.2-2.44,4.95-1.89
		c0.3,0.09,0.49,0.19,0.71,0.32l-0.77,2.46c-0.25-0.14-0.5-0.25-0.86-0.37c-1.83-0.57-3.57,0.41-4.54,2.25
		c-0.17,0.34-0.36,0.73-0.5,1.18l-2.39,7.63l-2.57-0.81L136.46,295.91z"/>
	<path class="st12" d="M152.8,291.03l-0.89,4.21l3.82,0.81l-0.43,2.03l-3.82-0.81l-1.68,7.91c-0.39,1.82-0.09,2.96,1.4,3.27
		c0.7,0.15,1.23,0.17,1.58,0.15l-0.3,2.03c-0.56,0.1-1.41,0.08-2.44-0.14c-1.24-0.26-2.16-0.87-2.64-1.73
		c-0.59-0.95-0.59-2.31-0.22-4.04l1.7-8l-2.27-0.48l0.43-2.03l2.27,0.48l0.75-3.52L152.8,291.03z"/>
	<path class="st12" d="M159.74,304.74c-0.31,3.68,1.88,5.42,4.6,5.7c1.94,0.2,3.15-0.02,4.21-0.35l0.27,1.99
		c-1,0.33-2.68,0.66-5.06,0.42c-4.59-0.46-7.03-3.76-6.58-8.26c0.45-4.5,3.46-7.78,7.81-7.34c4.87,0.49,5.74,4.91,5.46,7.65
		c-0.06,0.55-0.16,0.98-0.22,1.25L159.74,304.74z M167.89,303.6c0.21-1.72-0.26-4.48-3.32-4.79c-2.74-0.28-4.2,2.13-4.61,3.99
		L167.89,303.6z"/>
	<path class="st12" d="M175.21,302.02c-0.06-1.55-0.13-2.82-0.27-4.05l2.42-0.09l0.25,2.47l0.06,0c0.69-1.45,2.37-2.91,4.85-3
		c2.08-0.08,5.34,1.04,5.53,6.18l0.33,8.95l-2.73,0.1l-0.32-8.64c-0.09-2.42-1.06-4.4-3.63-4.3c-1.8,0.07-3.14,1.39-3.55,2.92
		c-0.11,0.35-0.16,0.81-0.14,1.28l0.33,9.01l-2.73,0.1L175.21,302.02z"/>
	<path class="st12" d="M203.58,310.23l-0.54-1.83l-0.09,0.02c-0.62,1.3-2.03,2.62-4.13,2.99c-2.99,0.53-4.89-1.31-5.26-3.45
		c-0.63-3.57,2.21-6.08,7.92-7.05l-0.05-0.31c-0.21-1.22-0.94-3.36-3.96-2.83c-1.37,0.24-2.73,0.92-3.65,1.77l-0.92-1.66
		c1.08-1.01,2.76-1.84,4.62-2.17c4.52-0.79,6.16,2.1,6.68,5.06l0.97,5.53c0.22,1.28,0.5,2.52,0.87,3.5L203.58,310.23z
		 M201.86,302.75c-2.94,0.45-6.18,1.56-5.67,4.43c0.3,1.74,1.61,2.36,2.98,2.12c1.92-0.34,2.93-1.77,3.14-3.1
		c0.04-0.29,0.05-0.61,0-0.88L201.86,302.75z"/>
	<path class="st12" d="M209.64,288.96c0.28,0.89-0.18,1.79-1.23,2.07c-0.93,0.25-1.78-0.28-2.03-1.18c-0.25-0.93,0.24-1.83,1.19-2.1
		C208.56,287.48,209.38,288.03,209.64,288.96z M211.81,308.29l-3.98-14.47l2.63-0.72l3.98,14.47L211.81,308.29z"/>
	<path class="st12" d="M216.66,296.11c-0.59-1.66-1.14-3.08-1.69-4.37l2.25-0.8l1.08,2.74l0.12-0.04c-0.04-2.13,1.08-3.88,2.8-4.49
		c0.29-0.1,0.51-0.15,0.76-0.17l0.87,2.42c-0.28,0.04-0.56,0.1-0.91,0.23c-1.81,0.65-2.6,2.48-2.26,4.53
		c0.07,0.37,0.15,0.8,0.31,1.24l2.69,7.53l-2.54,0.91L216.66,296.11z"/>
	<path class="st12" d="M229.58,294.67c1.66,3.29,4.45,3.63,6.9,2.45c1.76-0.85,2.67-1.67,3.4-2.51l1.27,1.56
		c-0.68,0.81-1.94,1.97-4.09,3.01c-4.16,2.01-7.97,0.48-9.94-3.59c-1.97-4.08-1.12-8.45,2.81-10.35c4.41-2.13,7.46,1.18,8.66,3.66
		c0.24,0.5,0.38,0.92,0.47,1.18L229.58,294.67z M235.93,289.43c-0.73-1.58-2.57-3.68-5.34-2.34c-2.48,1.2-2.46,4.02-1.84,5.81
		L235.93,289.43z"/>
	<path class="st12" d="M250.97,263.79l10.94,14.46c0.8,1.06,1.75,2.26,2.44,3.02l-1.95,1.48l-1.67-2l-0.05,0.04
		c0.34,1.84-0.35,3.96-2.3,5.43c-2.89,2.19-6.97,1.43-9.72-2.21c-3.04-3.96-2.42-8.28,0.5-10.49c1.83-1.38,3.72-1.46,4.99-0.9
		l0.05-0.04l-5.41-7.14L250.97,263.79z M256.7,275.89c-0.21-0.27-0.51-0.62-0.79-0.84c-1.37-1.14-3.42-1.38-5.05-0.15
		c-2.25,1.7-2.09,4.69-0.09,7.33c1.83,2.42,4.54,3.53,6.88,1.75c1.46-1.1,2.06-3.08,1.22-5.01c-0.15-0.35-0.35-0.67-0.61-1.01
		L256.7,275.89z"/>
	<path class="st12" d="M258.17,260.81c0.66,0.66,0.67,1.67-0.12,2.41c-0.7,0.66-1.71,0.58-2.34-0.1c-0.66-0.7-0.65-1.73,0.08-2.41
		C256.53,260.01,257.51,260.11,258.17,260.81z M269.09,276.92l-10.26-10.95l1.99-1.87l10.26,10.95L269.09,276.92z"/>
	<path class="st12" d="M272.91,250.95c0.78,0.76,1.65,1.6,3.03,2.79l6.58,5.7c2.6,2.25,3.75,4.15,3.78,6.1
		c0.08,1.99-0.97,3.87-2.21,5.3c-1.18,1.36-2.8,2.57-4.2,2.96l-1.12-1.88c1.12-0.34,2.55-1.15,3.77-2.56
		c1.83-2.11,2.07-4.61-0.79-7.08l-1.26-1.1l-0.04,0.05c0.51,1.54,0.29,3.49-1.23,5.25c-2.44,2.81-6.57,2.75-9.71,0.04
		c-3.84-3.33-3.85-7.72-1.59-10.32c1.7-1.97,3.67-2.15,5.03-1.83l0.04-0.05l-1.63-1.58L272.91,250.95z M275.54,256.96
		c-0.35-0.3-0.68-0.54-1.04-0.69c-1.52-0.66-3.38-0.51-4.67,0.99c-1.7,1.97-1.26,4.81,1.36,7.09c2.23,1.93,5.05,2.41,6.98,0.18
		c1.1-1.27,1.29-3.1,0.37-4.68c-0.25-0.42-0.61-0.81-0.96-1.12L275.54,256.96z"/>
	<path class="st12" d="M273.85,242.21c0.78,0.51,1,1.49,0.38,2.38c-0.55,0.79-1.55,0.92-2.31,0.39c-0.79-0.55-0.99-1.56-0.42-2.38
		C272.08,241.76,273.06,241.66,273.85,242.21z M287.85,255.73l-12.29-8.61l1.57-2.23l12.29,8.61L287.85,255.73z"/>
	<path class="st12" d="M277.78,235.82l3.7,2.2l2-3.36l1.79,1.06l-2,3.36l6.95,4.14c1.6,0.95,2.77,1.04,3.55-0.27
		c0.36-0.61,0.55-1.11,0.65-1.45l1.82,0.94c-0.08,0.56-0.38,1.36-0.92,2.27c-0.65,1.09-1.52,1.77-2.49,1.94
		c-1.09,0.25-2.38-0.19-3.9-1.09l-7.03-4.19l-1.19,2l-1.79-1.06l1.19-2l-3.09-1.84L277.78,235.82z"/>
	<path class="st12" d="M302.26,230.25l-1.81-0.59l-0.04,0.08c0.72,1.25,1.01,3.16,0.12,5.1c-1.26,2.76-3.85,3.28-5.83,2.38
		c-3.3-1.51-3.76-5.27-1.32-10.53l-0.28-0.13c-1.13-0.52-3.3-1.13-4.58,1.66c-0.58,1.27-0.79,2.77-0.61,4.02l-1.89-0.18
		c-0.22-1.46,0.05-3.32,0.84-5.04c1.91-4.17,5.22-3.89,7.96-2.64l5.1,2.33c1.18,0.54,2.37,1.01,3.38,1.27L302.26,230.25z
		 M295.13,227.43c-1.29,2.68-2.22,5.97,0.43,7.19c1.61,0.73,2.86,0.01,3.44-1.26c0.81-1.78,0.2-3.42-0.78-4.34
		c-0.21-0.2-0.47-0.39-0.72-0.5L295.13,227.43z"/>
	<path class="st12" d="M284.53,215.15l0.89-2.58l20.8,7.2l-0.89,2.58L284.53,215.15z"/>
</g>
<path class="st13" d="M50.64,190.56"/>
<path class="st13" d="M302.42,195.85"/>
<path class="st14" d="M280.1,103.73c14.88,20.79,23.64,46.25,23.64,73.77c0,6.23-0.45,12.36-1.32,18.35"/>
<path class="st14" d="M50.64,190.56c-0.44-4.29-0.66-8.65-0.66-13.06c0-28.77,9.58-55.31,25.72-76.59"/>
<circle class="st15" cx="172.93" cy="172.93" r="172.93"/>
</svg>
