<?xml version="1.0" encoding="UTF-8"?>
<svg width="36px" height="41px" viewBox="0 0 36 41" version="1.1" xmlns="http://www.w3.org/2000/svg" xmlns:xlink="http://www.w3.org/1999/xlink">
    <!-- Generator: Sketch 51.3 (57544) - http://www.bohemiancoding.com/sketch -->
    <title>prestashop</title>
    <desc>Created with Sketch.</desc>
    <defs></defs>
    <g id="HOME-ALL" stroke="none" stroke-width="1" fill="none" fill-rule="evenodd">
        <g id="SKYRUSH_DEV_14" transform="translate(-794.000000, -1200.000000)" fill-rule="nonzero">
            <g id="Group-11" transform="translate(300.000000, 1101.000000)">
                <g id="PARTNERS" transform="translate(114.000000, 0.000000)">
                    <g id="PARTNE">
                        <g id="LOGOS" transform="translate(86.000000, 97.000000)">
                            <g id="prestashop" transform="translate(294.345790, 2.000000)">
                                <path d="M32.32575,34.7481431 C31.0169619,35.8790977 29.5835889,36.8696865 28.0464873,37.6949927 C27.5976123,37.9375181 27.1393242,38.1658315 26.6715308,38.3784565 C23.6869365,39.74077 20.3699312,40.5 16.875,40.5 C13.3800688,40.5 10.0630635,39.7408623 7.07856152,38.3784565 C6.61233691,38.1658315 6.15414111,37.9389946 5.70360498,37.6965615 C4.16797998,36.8713477 2.73313037,35.8790977 1.42434229,34.7481431 C5.28149268,30.6169058 10.7766123,28.0339365 16.8750923,28.0339365 C22.9733877,28.0339365 28.4685996,30.6168135 32.32575,34.7481431 Z" id="Shape" fill="#D9DFF4"></path>
                                <path d="M28.7331812,37.3121938 C28.2370562,37.6020615 27.7299492,37.8713496 27.2132446,38.1233804 C24.0900381,39.6463623 20.5825562,40.5 16.875,40.5 C13.165875,40.5 9.65682422,39.6447935 6.53518652,38.1218115 C6.01857422,37.869873 5.51303613,37.5990161 5.01847998,37.310625 C8.24569189,34.3181865 12.3752681,32.5226865 16.8750923,32.5226865 C21.3763931,32.5226865 25.5060615,34.3181865 28.7331812,37.3121938 Z" id="Shape" fill="#C9D0EB"></path>
                                <g id="Group" transform="translate(6.815918, 28.687500)" fill="#D0D7F6">
                                    <polygon id="Shape" points="4.86167432 0.0267626953 2.18411279 0.0267626953 0.0577705078 6.68744385 2.73523975 6.68744385"></polygon>
                                    <polygon id="Shape" points="15.256582 0.0267626953 17.9340513 0.0267626953 20.0604858 6.68744385 17.3829243 6.68744385"></polygon>
                                </g>
                                <path d="M33.5290562,17.0324385 C33.5290562,17.0938081 33.5290562,17.15527 33.5274873,17.2167319 C33.5007246,19.7982246 32.8865669,22.2377827 31.8122754,24.4097139 C30.7270942,26.6084077 29.1725508,28.5314458 27.2778442,30.0514746 C24.4208804,32.3446685 20.7936123,33.7149185 16.8482373,33.7149185 C9.74652539,33.7149185 3.68283691,29.278125 1.27622461,23.0253442 C0.558061523,21.1652446 0.165849609,19.1445688 0.165849609,17.0325308 C0.165849609,7.82034961 7.6344873,0.351619629 16.8482373,0.351619629 C23.0773008,0.351619629 28.5110508,3.76783154 31.3744746,8.82985693 C31.9272627,9.80641846 32.3856431,10.8442573 32.7336504,11.9310073 C33.2502627,13.5391685 33.5290562,15.2527192 33.5290562,17.0324385 Z" id="Shape" fill="#CED4EE"></path>
                                <g id="Group" transform="translate(1.186523, 9.492188)" fill="#FFFFFF">
                                    <path d="M26.3985381,20.1150264 L26.0914131,20.5592871 C23.2344492,22.852481 19.6071812,24.222731 15.6618062,24.222731 C8.56009424,24.222731 2.49640576,19.7859375 0.089793457,13.5331567 C0.228498047,11.4447437 0.812755371,9.47759326 1.74825,7.72463672 C4.17857959,3.17128711 8.97593115,0.0732744141 14.4963369,0.0732744141 C16.8461938,0.0732744141 19.1110562,0.93641748 21.2278931,2.28304248 L22.092605,4.15412402 L22.9856484,6.46466748 L26.3985381,20.1150264 Z" id="Shape"></path>
                                    <path d="M32.3425327,7.54025098 C32.3425327,7.60162061 32.3425327,7.66308252 32.3409639,7.72454443 C32.3142012,10.3060371 31.7000435,12.7455952 30.625752,14.9175264 L28.1041523,13.2370137 L24.8076343,7.72445215 L23.4184658,5.40126563 C23.7728408,2.6055791 25.9779023,0.00682910156 28.1827793,0.00682910156 C28.3009043,0.00682910156 28.4190293,0.0178110352 28.5371543,0.0398671875 C29.0994478,0.142303711 29.6648789,0.479329102 30.2051162,0.950260254 C30.6806616,1.36443604 31.1344277,1.88261719 31.5470347,2.43863525 C32.0637393,4.04698096 32.3425327,5.76053174 32.3425327,7.54025098 Z" id="Shape"></path>
                                </g>
                                <path d="M24.7626123,14.1061685 C24.7626123,14.1061685 25.1169873,7.84554346 28.5032988,7.41235693 C31.8896104,6.97917041 33.0313623,14.8149185 33.0313623,14.8149185 L24.7626123,14.1061685 Z" id="Shape" fill="#C9D0EB"></path>
                                <path d="M31.3918242,10.4427246 L31.3918242,17.2167319 L25.99425,17.2167319 L24.6050815,14.8935454 C24.9594565,12.0978589 27.1645181,9.49910889 29.369395,9.49910889 C30.0451992,9.49929346 30.7381685,9.87258691 31.3918242,10.4427246 Z" id="Shape" fill="#DFE5FF"></path>
                                <path d="M24.5421431,31.8375615 C29.7601304,31.1114619 34.9340054,25.61625 34.9340054,25.61625 C32.9651938,22.8458496 29.2120488,17.1081123 24.5169492,13.2966431 L24.5153804,13.2966431 C24.0932681,12.95325 23.6633115,12.62573 23.2269873,12.318605 C22.9591758,12.129605 22.68675,11.9485415 22.4143242,11.77523 C22.3812861,13.2730181 22.2961992,15.4575923 22.0915107,17.2169165 C22.0852354,17.2704419 22.0788677,17.3223984 22.0725923,17.374355 C21.8000742,19.584123 19.8959546,23.4553931 18.9194854,25.66673 L18.9194854,25.6682988 C18.5730469,26.4511538 18.3445488,27.0259058 18.3445488,27.2448984 C18.3445488,28.0844165 17.8720488,31.916373 23.4365669,31.916373 C23.5074419,31.916373 23.576748,31.9148042 23.647623,31.9132354 C23.9451504,31.9052065 24.2444312,31.8800127 24.5421431,31.8375615" id="Shape" fill="#DDE3FF"></path>
                                <path d="M22.4143242,11.7751377 C19.4863931,5.99485693 14.1356997,6.32173096 11.8082681,7.17610693 C8.69770459,8.31804346 6.25639307,11.2711685 6.45332959,13.9485454" id="Shape" fill="#C9D0EB"></path>
                                <path d="M17.9774385,9.83475 C19.5114946,10.1875562 20.9951631,10.8726812 22.4142319,11.7751377 C22.3985435,12.5232012 22.3685508,13.4445762 22.3165942,14.3975127 C22.2661143,15.3519258 22.1937627,16.3379004 22.0913262,17.2168242 L18.1822192,17.2168242 L2.93468115,17.2168242 C5.36491846,12.6634746 10.1623623,9.56546191 15.6827681,9.56546191 C16.4576865,9.56546191 17.2246685,9.65996191 17.9774385,9.83475" id="Shape" fill="#DFE5FF"></path>
                                <path d="M19.9194873,26.6667319 C17.6094053,26.1942319 13.0944463,23.4116499 13.0944463,23.4116499 C13.0944463,23.4116499 16.2445078,27.6641499 20.4970078,28.8716089 L19.9194873,26.6667319 Z" id="Shape" fill="#C9D0EB"></path>
                                <path d="M29.0025615,23.8836885 L24.5421431,31.837377 L23.6474385,31.9129585 C23.5765635,31.9145273 23.5073496,31.9160962 23.4364746,31.9160962 C17.8719565,31.9160962 18.3444565,28.0841396 18.3444565,27.2446216 C18.3444565,27.0256289 18.57277,26.4507847 18.9193008,25.6681143 L18.9193008,25.6664531 C19.8154819,23.6898896 25.2634438,19.714522 25.4792065,15.5519077 C25.6950615,11.3892935 29.0025615,23.8836885 29.0025615,23.8836885 Z" id="Shape" fill="#C9D0EB"></path>
                                <path d="M34.9339131,25.61625 L34.9323442,25.6178188 L34.9307754,25.6209565 C34.7716758,25.7863315 29.6780889,31.1225361 24.5420508,31.8375615 C22.7008696,30.4231992 22.0881885,29.0764819 22.4126631,27.3976304 C22.6252881,26.3014673 23.2379692,25.0618931 24.171895,23.5688115 C26.534395,19.7888115 26.1138516,16.0088115 24.5152881,13.2966431 L24.5168569,13.2966431 C29.2119565,17.1081123 32.9652861,22.8458496 34.9339131,25.61625 Z" id="Shape" fill="#D9DFF4"></path>
                                <path d="M34.9324365,25.6178188 L34.9308677,25.6209565 C34.7717681,25.7863315 29.6781812,31.1225361 24.5421431,31.8375615 C22.7009619,30.4231992 22.0882808,29.0764819 22.4127554,27.3976304 L22.4143242,27.3976304 C30.5775,28.5835869 34.8221558,25.6934004 34.9324365,25.6178188 Z" id="Shape" fill="#B0B8D7"></path>
                                <g id="Group" transform="translate(17.890137, 9.492188)" fill="#EFF2FF">
                                    <path d="M4.5241875,2.2829502 C4.50840674,3.03101367 4.47850635,3.95238867 4.42645752,4.9053252 C4.37606982,5.85973828 4.30362598,6.84562061 4.20118945,7.72463672 L0.29208252,7.72463672 L0.087394043,5.46761865 L0.087394043,0.3425625 C1.6214502,0.695368652 3.10502637,1.38040137 4.5241875,2.2829502 Z" id="Shape"></path>
                                    <path d="M15.6389194,7.54025098 C15.6389194,7.60162061 15.6389194,7.66308252 15.6373506,7.72454443 L11.8337256,7.72454443 L11.8337256,0.040144043 C12.396019,0.142580566 12.9614502,0.479605957 13.5016875,0.950537109 C13.9772329,1.36471289 14.430999,1.88289404 14.843606,2.43891211 C15.360126,4.04698096 15.6389194,5.76053174 15.6389194,7.54025098 Z" id="Shape"></path>
                                </g>
                                <polygon id="Shape" fill="#BDC4E3" points="19.8145591 16.7442319 17.9245591 10.8117729 16.4609165 15.5441558 10.3645591 17.2167319 18.5019873 18.9492935"></polygon>
                                <circle id="Oval" fill="#C9D0EB" cx="17.9768848" cy="17.2164551" r="2.25747949"></circle>
                                <polygon id="Shape" fill="#BDC4E3" points="31.3918242 12.8855127 30.5116084 16.7574287 32.276562 16.7845605"></polygon>
                                <ellipse id="Oval" fill="#C9D0EB" cx="31.3923779" cy="17.2164551" rx="1" ry="1.64793604"></ellipse>
                                <ellipse id="Oval" fill="#FFFFFF" cx="31.3923779" cy="16.3646631" rx="1" ry="1"></ellipse>
                                <circle id="Oval" fill="#FFFFFF" cx="17.9768848" cy="16.1145703" r="1"></circle>
                                <path d="M27.2133369,35.3749438 L27.2133369,38.1233804 C24.0900381,39.6463623 20.5825562,40.5 16.875,40.5 C13.165875,40.5 9.65682422,39.6447935 6.53518652,38.1218115 L6.53518652,35.3750361 L27.2133369,35.3750361 L27.2133369,35.3749438 Z" id="Shape" fill="#D9E1FF"></path>
                                <path d="M27.2133369,35.3749438 L27.2133369,38.1233804 C24.0900381,39.6463623 20.5825562,40.5 16.875,40.5 L16.875,35.3749438 L27.2133369,35.3749438 Z" id="Shape" fill="#D0D7F6"></path>
                                <path d="M28.0465796,37.6949004 C27.5977046,37.9374258 27.1394165,38.1657393 26.671623,38.3783643 L26.4716411,35.8016704 L7.27854346,35.8016704 L7.07856152,38.3783643 C6.61233691,38.1657393 6.15414111,37.9389023 5.70360498,37.696377 L5.96818652,34.6991396 L27.781998,34.6991396 L28.0465796,37.6949004 Z" id="Shape" fill="#C3CBE9"></path>
                            </g>
                        </g>
                    </g>
                </g>
            </g>
        </g>
    </g>
</svg>
