<?xml version="1.0" encoding="UTF-8"?>
<svg width="39px" height="45px" viewBox="0 0 39 45" version="1.1" xmlns="http://www.w3.org/2000/svg" xmlns:xlink="http://www.w3.org/1999/xlink">
    <!-- Generator: Sketch 51.3 (57544) - http://www.bohemiancoding.com/sketch -->
    <title>Shopify</title>
    <desc>Created with Sketch.</desc>
    <defs></defs>
    <g id="HOME-ALL" stroke="none" stroke-width="1" fill="none" fill-rule="evenodd">
        <g id="01B_HOMEPARTENRS_01" transform="translate(-1501.000000, -1217.000000)" fill-rule="nonzero">
            <g id="PARTNERS" transform="translate(414.000000, 1121.000000)">
                <g id="LOGOS" transform="translate(86.000000, 96.000000)">
                    <g id="Shopify" transform="translate(1001.000000, 0.000000)">
                        <path d="M34.0905703,8.73539062 C34.0599492,8.51296875 33.8651016,8.389875 33.7040742,8.37631641 C33.5433516,8.36291016 30.1418203,8.11078125 30.1418203,8.11078125 C30.1418203,8.11078125 27.7794258,5.76544922 27.5201367,5.50585547 C27.2606953,5.24641406 26.754,5.32532812 26.5573242,5.38321875 C26.5283789,5.39175 26.0411836,5.54211328 25.2352852,5.7915 C24.4461445,3.52066406 23.053418,1.43385937 20.6032734,1.43385937 C20.5356328,1.43385937 20.4660117,1.43660156 20.3963906,1.4405625 C19.6995703,0.519035156 18.8363906,0.118675781 18.0908203,0.118675781 C12.3832617,0.118675781 9.65646094,7.25369531 8.80150781,10.8794766 C6.5836875,11.5666992 5.00814844,12.0552656 4.80690234,12.1184883 C3.56895703,12.5068125 3.52980469,12.5458125 3.36725391,13.7123086 C3.24492187,14.5954453 0.0057890625,39.6451758 0.0057890625,39.6451758 L25.2457969,44.3742305 L38.9216953,41.4157148 C38.9216953,41.4157148 34.1208867,8.9578125 34.0907227,8.73539062 L34.0905703,8.73539062 Z M23.8402734,6.2229375 L21.7045664,6.88395703 C21.7053281,6.73344141 21.7060898,6.58536328 21.7060898,6.42342187 C21.7060898,5.01210937 21.5101758,3.87577734 21.1958906,2.97496875 C22.4583633,3.13340625 23.2991484,4.56985547 23.8402734,6.2229375 Z M19.6297969,3.25482422 C19.9807969,4.13430469 20.2090078,5.39647266 20.2090078,7.09967578 C20.2090078,7.18681641 20.2082461,7.26649219 20.2074844,7.34708203 C18.8185664,7.77730078 17.3092969,8.24438672 15.7966758,8.71299609 C16.6459922,5.43516797 18.2379844,3.85201172 19.6297969,3.25482422 Z M17.9340586,1.64957812 C18.1803984,1.64957812 18.4285664,1.73321484 18.6660703,1.89667969 C16.8368789,2.75742187 14.8762148,4.92527344 14.0482266,9.25442578 L10.5616875,10.3342383 C11.5315078,7.0321875 13.8343359,1.64957812 17.9339062,1.64957812 L17.9340586,1.64957812 Z" id="Shape" fill="#95BF46"></path>
                        <path d="M33.7040742,8.37631641 C33.5433516,8.36291016 30.1418203,8.11078125 30.1418203,8.11078125 C30.1418203,8.11078125 27.7794258,5.76544922 27.5201367,5.50585547 C27.4230937,5.40926953 27.2922305,5.35975781 27.1554258,5.33842969 L25.2470156,44.3739258 L38.9216953,41.4157148 C38.9216953,41.4157148 34.1207344,8.9578125 34.0905703,8.73539063 C34.0599492,8.51296875 33.8651016,8.389875 33.7040742,8.37631641" id="Shape" fill="#5E8E3E"></path>
                        <path d="M20.6032734,15.9328711 L18.9169805,20.9489414 C18.9169805,20.9489414 17.4395508,20.1604102 15.6284883,20.1604102 C12.9734414,20.1604102 12.8398359,21.8265938 12.8398359,22.2464531 C12.8398359,24.5373984 18.8117109,25.4152031 18.8117109,30.7813594 C18.8117109,35.0032617 16.1339648,37.7218359 12.523418,37.7218359 C8.19076172,37.7218359 5.97507422,35.0253516 5.97507422,35.0253516 L7.13517187,31.1923828 C7.13517187,31.1923828 9.41271094,33.1477148 11.3345273,33.1477148 C12.5902969,33.1477148 13.1011055,32.1590039 13.1011055,31.4365898 C13.1011055,28.4482148 8.20173047,28.3149141 8.20173047,23.404418 C8.20173047,19.2714844 11.168168,15.2720039 17.1561914,15.2720039 C19.4634375,15.2720039 20.6032734,15.9328711 20.6032734,15.9328711" id="Shape" fill="#FFFFFF"></path>
                    </g>
                </g>
            </g>
        </g>
    </g>
</svg>