<?xml version="1.0" encoding="UTF-8"?>
<svg width="39px" height="45px" viewBox="0 0 39 45" version="1.1" xmlns="http://www.w3.org/2000/svg" xmlns:xlink="http://www.w3.org/1999/xlink">
    <!-- Generator: Sketch 51.3 (57544) - http://www.bohemiancoding.com/sketch -->
    <title>Shopify</title>
    <desc>Created with Sketch.</desc>
    <defs></defs>
    <g id="HOME-ALL" stroke="none" stroke-width="1" fill="none" fill-rule="evenodd">
        <g id="01_HOME_01" transform="translate(-1501.000000, -898.000000)" fill-rule="nonzero">
            <g id="TOP" transform="translate(300.000000, 190.000000)">
                <g id="PARTNERS" transform="translate(114.000000, 612.000000)">
                    <g id="PARTNE">
                        <g id="LOGOS" transform="translate(86.000000, 96.000000)">
                            <g id="Shopify" transform="translate(1001.000000, 0.000000)">
                                <path d="M34.0386821,8.72209475 C34.0081076,8.50001142 33.8135565,8.37710502 33.6527743,8.36356707 C33.4922962,8.35018122 30.0959424,8.09843607 30.0959424,8.09843607 C30.0959424,8.09843607 27.7371436,5.7566738 27.4782491,5.49747517 C27.2192026,5.23842865 26.7132785,5.3172226 26.5169021,5.37502511 C26.4880009,5.38354338 26.0015471,5.5336778 25.1968753,5.78268493 C24.4089358,3.51530537 23.0183291,1.43167694 20.5719138,1.43167694 C20.5043761,1.43167694 20.434861,1.43441495 20.3653459,1.43836986 C19.6695862,0.518245148 18.8077203,0.118495148 18.0632848,0.118495148 C12.3644135,0.118495148 9.64176313,7.24265468 8.7881113,10.8629172 C6.57366667,11.5490939 5.00052568,12.0369167 4.7995859,12.1000431 C3.56352483,12.4877763 3.52443208,12.5267169 3.36212871,13.6914375 C3.23998288,14.57323 0.00578025114,39.584833 0.00578025114,39.584833 L25.207371,44.3066898 L38.8624538,41.3526772 C38.8624538,41.3526772 34.0689523,8.94417808 34.0388342,8.72209475 L34.0386821,8.72209475 Z M23.8039869,6.21346575 L21.6715305,6.87347917 C21.6722911,6.72319264 21.6730517,6.5753399 21.6730517,6.41364498 C21.6730517,5.00448059 21.4774358,3.86987814 21.163629,2.97044064 C22.4241801,3.12863699 23.2636855,4.56289983 23.8039869,6.21346575 Z M19.5999189,3.24987015 C19.9503847,4.12801199 20.1782483,5.38825885 20.1782483,7.08886958 C20.1782483,7.17587757 20.1774877,7.25543208 20.1767272,7.33589926 C18.7899232,7.76546318 17.2829509,8.23183818 15.7726321,8.6997343 C16.6206558,5.42689526 18.2102249,3.84614869 19.5999189,3.24987015 Z M17.9067617,1.64706735 C18.1527266,1.64706735 18.4005168,1.73057677 18.6376592,1.89379281 C16.811252,2.75322489 14.8535722,4.91777683 14.0268442,9.2403399 L10.5456119,10.3185088 C11.5139561,7.02148402 13.8132791,1.64706735 17.9066096,1.64706735 L17.9067617,1.64706735 Z" id="Shape" fill="#D2D8F0"></path>
                                <path d="M33.6527743,8.36356707 C33.4922962,8.35018122 30.0959424,8.09843607 30.0959424,8.09843607 C30.0959424,8.09843607 27.7371436,5.7566738 27.4782491,5.49747517 C27.3813539,5.40103624 27.2506898,5.35159989 27.1140933,5.33030422 L25.2085879,44.3063856 L38.8624538,41.3526772 C38.8624538,41.3526772 34.0688002,8.94417808 34.0386821,8.72209475 C34.0081076,8.50001142 33.8135565,8.37710502 33.6527743,8.36356707" id="Shape" fill="#E0E5FB"></path>
                                <path d="M20.5719138,15.9086201 L18.8881875,20.9170557 C18.8881875,20.9170557 17.4130066,20.1297246 15.6047006,20.1297246 C12.9536949,20.1297246 12.8202928,21.7933721 12.8202928,22.2125925 C12.8202928,24.5000508 18.7830782,25.3765194 18.7830782,30.734508 C18.7830782,34.9499843 16.1094078,37.6644207 12.5043564,37.6644207 C8.17829481,37.6644207 5.96597974,34.9720405 5.96597974,34.9720405 L7.12431164,31.1449058 C7.12431164,31.1449058 9.39838413,33.0972617 11.3172754,33.0972617 C12.5711336,33.0972617 13.0811647,32.1100557 13.0811647,31.3887412 C13.0811647,28.4049147 8.18924686,28.2718168 8.18924686,23.3687948 C8.18924686,19.2421518 11.1511692,15.2487588 17.1300785,15.2487588 C19.4338128,15.2487588 20.5719138,15.9086201 20.5719138,15.9086201" id="Shape" fill="#FFFFFF"></path>
                            </g>
                        </g>
                    </g>
                </g>
            </g>
        </g>
    </g>
</svg>